<svg id="svg" xmlns="http://www.w3.org/2000/svg" xmlns:xlink="http://www.w3.org/1999/xlink" width="400" height="400" viewBox="0, 0, 400,400"><g id="svgg"><path id="path0" d="M103.271 120.300 C 103.433 121.396,103.425 121.399,101.317 121.263 C 99.270 121.131,99.200 121.160,99.200 122.163 C 99.200 123.002,99.010 123.200,98.200 123.200 C 97.126 123.200,96.688 124.963,97.680 125.293 C 98.054 125.418,98.054 125.519,97.680 125.750 C 97.416 125.914,97.200 125.857,97.200 125.624 C 97.200 125.391,96.750 125.200,96.200 125.200 C 94.914 125.200,94.747 127.002,95.996 127.399 C 96.826 127.662,97.718 127.344,97.470 126.872 C 97.033 126.040,98.739 125.270,99.401 126.001 C 100.028 126.694,100.007 126.777,99.034 127.415 C 98.465 127.787,98.000 128.287,98.000 128.526 C 98.000 128.764,97.080 129.823,95.955 130.880 C 94.830 131.936,94.047 132.800,94.217 132.800 C 94.386 132.800,94.202 133.156,93.809 133.591 C 93.415 134.025,92.937 134.285,92.747 134.167 C 92.556 134.049,92.400 134.139,92.400 134.366 C 92.400 134.862,88.924 138.400,88.436 138.400 C 88.248 138.400,87.999 138.760,87.884 139.200 C 87.769 139.640,87.409 140.000,87.083 140.000 C 86.758 140.000,86.197 140.450,85.837 141.000 C 85.476 141.550,84.815 142.000,84.367 142.000 C 83.919 142.000,83.651 142.160,83.772 142.355 C 84.055 142.813,82.949 143.739,82.471 143.444 C 82.271 143.320,82.194 142.767,82.299 142.214 C 82.405 141.662,82.651 141.308,82.846 141.428 C 83.180 141.635,83.254 141.434,83.370 140.000 C 83.397 139.670,83.720 139.451,84.089 139.513 C 84.705 139.617,85.482 138.720,85.550 137.825 C 85.565 137.619,85.880 137.406,86.249 137.352 C 87.835 137.119,87.753 135.200,86.157 135.200 C 85.403 135.200,85.200 135.412,85.200 136.200 C 85.200 137.000,85.000 137.200,84.200 137.200 C 83.400 137.200,83.200 137.400,83.200 138.200 C 83.200 139.000,83.000 139.200,82.200 139.200 C 81.400 139.200,81.200 139.400,81.200 140.200 C 81.200 141.133,81.067 141.200,79.200 141.200 L 77.200 141.200 77.200 143.200 C 77.200 145.067,77.133 145.200,76.200 145.200 C 75.126 145.200,74.688 146.963,75.680 147.293 C 76.054 147.418,76.054 147.519,75.680 147.750 C 75.416 147.914,75.200 147.857,75.200 147.624 C 75.200 147.391,74.750 147.200,74.200 147.200 C 73.267 147.200,73.200 147.333,73.200 149.200 C 73.200 150.300,73.352 151.200,73.539 151.200 C 73.725 151.200,74.299 151.566,74.815 152.013 L 75.752 152.826 74.865 153.713 L 73.978 154.600 54.400 154.711 C 32.685 154.834,33.200 154.895,33.200 152.200 C 33.200 151.267,33.067 151.200,31.200 151.200 L 29.200 151.200 29.200 153.200 C 29.200 155.067,29.133 155.200,28.200 155.200 L 27.200 155.200 27.200 200.000 L 27.200 244.800 28.200 244.800 C 29.133 244.800,29.200 244.933,29.200 246.800 C 29.200 249.165,31.294 249.959,31.836 247.800 C 32.072 246.857,32.353 246.700,33.800 246.700 C 35.449 246.700,35.578 246.790,35.241 247.700 C 35.058 248.195,34.704 248.623,34.454 248.650 C 34.204 248.678,33.820 248.722,33.600 248.750 C 33.380 248.778,33.200 249.250,33.200 249.800 L 33.200 250.800 53.200 250.800 L 73.200 250.800 73.200 251.800 C 73.200 252.600,73.400 252.800,74.200 252.800 C 75.003 252.800,75.200 252.601,75.200 251.787 C 75.200 250.572,76.692 249.787,77.515 250.569 C 78.278 251.294,77.710 252.278,76.374 252.545 C 74.686 252.883,74.526 256.800,76.200 256.800 C 77.000 256.800,77.200 257.000,77.200 257.800 C 77.200 258.600,77.400 258.800,78.200 258.800 C 79.000 258.800,79.200 259.000,79.200 259.800 C 79.200 260.600,79.400 260.800,80.200 260.800 C 81.000 260.800,81.200 261.000,81.200 261.800 C 81.200 262.600,81.400 262.800,82.200 262.800 C 83.000 262.800,83.200 263.000,83.200 263.800 C 83.200 264.733,83.333 264.800,85.200 264.800 C 87.067 264.800,87.200 264.867,87.200 265.800 C 87.200 266.603,87.399 266.800,88.213 266.800 C 89.526 266.800,89.814 265.974,89.029 264.456 C 88.259 262.968,88.252 262.800,88.953 262.800 C 89.258 262.800,89.597 263.145,89.707 263.566 C 89.818 263.989,90.332 264.392,90.854 264.466 C 91.470 264.553,91.844 264.906,91.925 265.478 C 92.001 266.011,92.257 266.276,92.577 266.154 C 92.867 266.042,93.440 266.377,93.852 266.897 C 94.263 267.417,94.932 267.969,95.338 268.123 C 95.744 268.278,96.169 268.718,96.282 269.102 C 96.396 269.486,97.353 270.520,98.411 271.400 C 99.468 272.280,100.303 273.266,100.266 273.591 C 100.230 273.916,100.410 274.186,100.667 274.191 C 100.923 274.196,101.277 274.344,101.453 274.519 C 101.827 274.894,101.984 276.770,101.637 276.732 C 99.938 276.542,99.200 276.866,99.200 277.800 C 99.200 278.600,99.400 278.800,100.200 278.800 C 101.000 278.800,101.200 279.000,101.200 279.800 L 101.200 280.800 132.000 280.800 L 162.800 280.800 162.800 279.800 C 162.800 278.993,162.998 278.800,163.827 278.800 C 164.704 278.800,164.835 278.645,164.727 277.731 C 164.553 276.264,162.800 276.045,162.800 277.490 C 162.800 278.112,162.638 278.347,162.338 278.162 C 162.052 277.985,161.985 278.052,162.162 278.338 C 162.348 278.639,162.107 278.800,161.470 278.800 C 160.751 278.800,160.444 278.541,160.306 277.821 C 160.112 276.804,160.611 276.000,161.437 276.000 C 162.055 276.000,162.481 274.897,161.983 274.589 C 161.489 274.284,161.458 126.135,161.952 125.830 C 162.747 125.338,162.777 123.913,161.988 124.119 C 161.025 124.371,160.300 123.514,160.469 122.325 C 160.622 121.252,162.561 120.964,162.654 122.000 C 162.683 122.330,162.728 122.844,162.754 123.143 C 162.781 123.460,163.055 123.588,163.415 123.449 C 163.817 123.295,164.146 123.524,164.362 124.107 C 164.620 124.804,164.702 124.583,164.732 123.100 C 164.768 121.337,164.700 121.200,163.785 121.200 C 163.001 121.200,162.800 120.996,162.800 120.200 L 162.800 119.200 132.955 119.200 L 103.109 119.200 103.271 120.300 M237.200 120.200 C 237.200 121.000,237.000 121.200,236.200 121.200 C 235.365 121.200,235.200 121.390,235.200 122.350 C 235.200 123.580,237.141 124.148,237.250 122.950 C 237.278 122.647,237.322 122.193,237.350 121.940 C 237.426 121.239,239.053 121.141,239.603 121.804 C 240.258 122.592,239.838 123.529,238.624 123.991 C 237.647 124.362,237.640 124.398,238.236 125.825 C 239.241 128.230,238.899 149.987,237.838 151.159 C 237.419 151.621,236.834 152.000,236.538 152.000 C 236.242 152.000,236.000 152.242,236.000 152.538 C 236.000 154.600,235.998 154.600,212.442 154.600 L 190.568 154.600 189.306 153.600 C 188.612 153.050,188.034 152.285,188.022 151.900 C 187.982 150.638,185.200 150.934,185.200 152.200 C 185.200 153.000,185.000 153.200,184.200 153.200 C 183.400 153.200,183.200 153.400,183.200 154.200 C 183.200 155.000,183.000 155.200,182.200 155.200 C 180.554 155.200,180.642 161.482,182.291 161.673 C 184.442 161.923,184.388 160.936,184.394 199.740 C 184.400 236.749,184.329 238.533,182.861 238.340 C 181.407 238.148,181.200 238.430,181.200 240.600 C 181.200 242.680,181.255 242.800,182.200 242.800 C 183.133 242.800,183.200 242.933,183.200 244.800 C 183.200 246.667,183.267 246.800,184.200 246.800 C 185.000 246.800,185.200 247.000,185.200 247.800 L 185.200 248.800 210.200 248.800 C 230.875 248.800,235.200 248.707,235.200 248.262 C 235.200 247.613,236.471 246.400,237.152 246.400 C 238.514 246.400,238.800 248.923,238.794 260.887 C 238.788 273.848,238.680 274.512,236.554 274.721 C 234.808 274.892,234.462 278.800,236.193 278.800 C 237.001 278.800,237.200 278.998,237.200 279.803 L 237.200 280.805 266.100 280.703 L 295.000 280.600 295.128 279.700 C 295.231 278.972,295.064 278.800,294.255 278.800 C 292.463 278.800,292.391 276.248,294.173 275.907 C 295.154 275.720,296.565 276.523,296.654 277.319 C 296.683 277.583,296.728 278.034,296.754 278.321 C 296.843 279.330,300.976 278.766,301.125 277.725 C 301.202 277.179,301.579 276.802,302.125 276.725 C 302.679 276.646,303.047 276.270,303.128 275.700 C 303.210 275.122,303.532 274.800,304.028 274.800 C 304.585 274.800,304.800 274.521,304.800 273.800 C 304.800 272.988,304.997 272.800,305.845 272.800 C 306.763 272.800,306.871 272.663,306.727 271.681 C 306.576 270.655,306.655 270.576,307.681 270.727 C 308.663 270.871,308.800 270.763,308.800 269.845 C 308.800 268.997,308.988 268.800,309.800 268.800 C 310.838 268.800,311.295 267.153,310.408 266.605 C 309.843 266.256,308.400 267.124,308.400 267.814 C 308.400 268.136,308.143 268.400,307.829 268.400 C 307.514 268.400,306.942 268.715,306.557 269.100 C 306.172 269.485,305.754 269.800,305.629 269.800 C 305.503 269.800,305.445 269.935,305.500 270.100 C 305.555 270.265,305.420 270.400,305.200 270.400 C 304.980 270.400,304.800 270.040,304.800 269.600 C 304.800 269.067,305.067 268.800,305.600 268.800 C 306.184 268.800,306.400 268.533,306.400 267.814 C 306.400 266.809,307.631 265.790,308.212 266.314 C 308.386 266.471,308.400 266.377,308.243 266.105 C 308.068 265.800,308.736 264.844,309.979 263.620 C 311.091 262.526,312.000 261.513,312.000 261.369 C 312.000 260.920,315.080 258.000,315.553 258.000 C 315.799 258.000,316.000 257.803,316.000 257.563 C 316.000 256.608,321.103 252.001,322.072 252.081 C 323.469 252.197,323.193 254.800,321.784 254.800 C 321.126 254.800,320.818 255.062,320.728 255.700 C 320.648 256.263,320.279 256.646,319.741 256.722 C 319.268 256.790,318.787 257.208,318.670 257.652 C 318.554 258.096,318.086 258.557,317.630 258.676 C 317.083 258.819,316.800 259.218,316.800 259.847 C 316.800 260.590,316.585 260.800,315.828 260.800 C 315.124 260.800,314.820 261.049,314.728 261.700 C 314.646 262.278,314.278 262.646,313.700 262.728 C 313.049 262.820,312.800 263.124,312.800 263.828 C 312.800 264.587,312.590 264.800,311.843 264.800 C 310.892 264.800,310.192 265.739,310.622 266.436 C 311.157 267.301,312.800 266.821,312.800 265.800 C 312.800 265.000,313.000 264.800,313.800 264.800 C 314.600 264.800,314.800 264.600,314.800 263.800 C 314.800 263.000,315.000 262.800,315.800 262.800 C 316.600 262.800,316.800 262.600,316.800 261.800 C 316.800 261.000,317.000 260.800,317.800 260.800 C 318.600 260.800,318.800 260.600,318.800 259.800 C 318.800 259.000,319.000 258.800,319.800 258.800 C 320.600 258.800,320.800 258.600,320.800 257.800 C 320.800 257.000,321.000 256.800,321.800 256.800 C 322.600 256.800,322.800 256.600,322.800 255.800 C 322.800 254.988,322.997 254.800,323.845 254.800 C 324.763 254.800,324.871 254.663,324.727 253.681 C 324.576 252.655,324.655 252.576,325.681 252.727 C 327.290 252.963,327.446 249.049,325.844 248.647 C 324.608 248.337,324.190 247.239,324.999 246.429 C 325.724 245.704,361.991 245.240,363.970 245.930 C 365.119 246.330,366.989 245.830,366.614 245.223 C 366.484 245.013,366.743 244.645,367.189 244.406 C 367.755 244.103,368.000 243.569,368.000 242.635 C 368.000 241.280,368.590 240.490,369.500 240.625 C 369.775 240.666,370.180 240.722,370.400 240.750 C 370.620 240.778,370.800 241.250,370.800 241.800 C 370.800 242.600,371.000 242.800,371.800 242.800 L 372.800 242.800 372.800 199.000 L 372.800 155.200 371.800 155.200 C 370.867 155.200,370.800 155.067,370.800 153.200 L 370.800 151.200 368.825 151.200 C 366.893 151.200,366.848 151.228,366.725 152.491 C 366.499 154.819,366.583 154.811,345.311 154.700 C 326.536 154.603,326.000 154.578,325.211 153.789 C 324.313 152.891,324.974 151.200,326.223 151.200 C 326.649 151.200,326.800 150.676,326.800 149.200 C 326.800 147.333,326.733 147.200,325.800 147.200 C 325.000 147.200,324.800 147.000,324.800 146.200 C 324.800 145.400,324.600 145.200,323.800 145.200 C 322.988 145.200,322.800 145.003,322.800 144.155 C 322.800 143.237,322.663 143.129,321.681 143.273 C 320.644 143.426,320.575 143.352,320.734 142.266 C 320.895 141.168,320.832 141.105,319.734 141.266 C 318.648 141.425,318.574 141.356,318.727 140.319 C 318.882 139.259,317.501 138.632,316.724 139.409 C 316.430 139.704,316.835 141.626,317.150 141.431 C 317.697 141.093,318.896 142.372,318.646 143.025 C 318.474 143.472,318.561 143.624,318.912 143.489 C 319.549 143.245,320.557 143.954,320.910 144.893 C 321.067 145.313,321.413 145.493,321.785 145.350 C 322.123 145.221,322.423 145.314,322.450 145.557 C 322.478 145.801,322.545 146.180,322.600 146.400 C 322.655 146.620,322.723 146.991,322.750 147.224 C 322.778 147.457,322.980 147.536,323.200 147.400 C 323.420 147.264,323.603 147.388,323.606 147.676 C 323.611 148.057,323.718 148.036,324.000 147.600 C 324.213 147.270,324.406 147.090,324.427 147.200 C 324.684 148.503,324.582 149.200,324.133 149.200 C 323.840 149.200,323.594 149.425,323.586 149.700 C 323.578 149.975,323.173 149.726,322.686 149.147 C 322.199 148.567,321.395 147.970,320.900 147.820 C 320.305 147.639,320.000 147.233,320.000 146.620 C 320.000 146.011,319.708 145.617,319.148 145.471 C 318.579 145.322,318.376 145.041,318.535 144.624 C 318.667 144.281,318.601 143.978,318.387 143.950 C 318.174 143.922,317.780 143.878,317.512 143.850 C 317.243 143.822,316.797 143.350,316.519 142.800 C 316.242 142.250,315.764 141.848,315.457 141.906 C 315.151 141.964,314.603 141.559,314.241 141.006 C 313.878 140.453,313.316 140.000,312.991 140.000 C 312.666 140.000,312.400 139.817,312.400 139.593 C 312.400 139.118,308.813 135.600,308.328 135.600 C 308.148 135.600,308.000 135.351,308.000 135.046 C 308.000 134.741,307.550 134.197,307.000 133.837 C 306.450 133.476,306.000 132.916,306.000 132.591 C 306.000 132.266,305.726 132.000,305.390 132.000 C 305.055 132.000,304.602 131.533,304.385 130.961 C 304.168 130.390,303.633 129.829,303.195 129.715 C 302.758 129.600,302.400 129.262,302.400 128.963 C 302.400 128.663,301.976 128.140,301.457 127.801 C 300.209 126.983,300.429 125.132,301.745 125.380 C 302.215 125.468,302.780 125.557,303.000 125.576 C 303.220 125.596,303.149 125.771,302.842 125.966 C 302.510 126.176,302.392 126.602,302.551 127.017 C 302.698 127.401,302.933 127.600,303.073 127.461 C 303.212 127.321,303.603 127.430,303.940 127.703 C 304.429 128.100,304.493 128.099,304.253 127.700 C 304.088 127.425,304.143 127.200,304.376 127.200 C 304.609 127.200,304.800 126.750,304.800 126.200 C 304.800 125.486,304.584 125.200,304.043 125.200 C 303.570 125.200,303.193 124.826,303.036 124.200 C 302.880 123.579,302.501 123.200,302.036 123.200 C 301.563 123.200,301.191 122.817,301.026 122.163 C 300.784 121.198,300.630 121.135,298.821 121.263 C 297.751 121.338,296.960 121.263,297.063 121.096 C 297.167 120.929,297.138 120.434,296.999 119.996 C 296.749 119.211,296.350 119.200,266.973 119.200 L 237.200 119.200 237.200 120.200 M105.625 122.265 C 106.089 123.487,105.612 124.244,104.618 123.862 C 103.723 123.519,103.420 122.498,104.004 121.795 C 104.721 120.931,105.167 121.060,105.625 122.265 M296.537 121.780 C 296.660 122.100,296.421 122.775,296.006 123.280 C 295.026 124.475,293.849 123.596,294.427 122.100 C 294.816 121.092,296.193 120.883,296.537 121.780 M101.045 125.527 C 100.436 126.136,99.200 125.925,99.200 125.213 C 99.200 124.986,99.590 124.410,100.067 123.933 L 100.933 123.067 101.280 124.005 C 101.526 124.670,101.457 125.114,101.045 125.527 M93.200 128.200 C 93.200 129.000,93.000 129.200,92.200 129.200 C 91.400 129.200,91.200 129.400,91.200 130.200 C 91.200 131.000,91.000 131.200,90.200 131.200 C 89.400 131.200,89.200 131.400,89.200 132.200 C 89.200 133.000,89.000 133.200,88.200 133.200 C 87.112 133.200,86.700 134.930,87.700 135.298 C 88.584 135.623,89.200 135.159,89.200 134.167 C 89.200 133.410,89.411 133.200,90.172 133.200 C 90.870 133.200,91.180 132.950,91.272 132.316 C 91.353 131.759,91.769 131.346,92.400 131.197 C 93.044 131.046,93.400 130.684,93.401 130.181 C 93.401 129.752,93.671 129.383,94.001 129.361 C 95.327 129.274,95.515 129.169,95.716 128.399 C 95.831 127.959,95.762 127.700,95.563 127.823 C 95.363 127.946,95.200 127.857,95.200 127.624 C 95.200 127.391,94.750 127.200,94.200 127.200 C 93.400 127.200,93.200 127.400,93.200 128.200 M304.800 128.200 C 304.800 129.000,305.000 129.200,305.800 129.200 C 306.600 129.200,306.800 129.000,306.800 128.200 C 306.800 127.400,306.600 127.200,305.800 127.200 C 305.000 127.200,304.800 127.400,304.800 128.200 M306.678 130.024 C 306.544 130.537,306.677 130.915,307.031 131.024 C 307.344 131.121,307.870 131.284,308.200 131.387 C 308.530 131.491,308.800 131.941,308.800 132.387 C 308.800 132.931,309.063 133.200,309.592 133.200 C 310.104 133.200,310.474 133.554,310.636 134.200 C 310.863 135.104,311.246 135.380,312.093 135.250 C 312.254 135.225,312.499 135.655,312.637 136.206 C 312.792 136.821,313.266 137.302,313.868 137.453 C 314.453 137.600,314.767 137.909,314.648 138.220 C 314.382 138.912,315.431 139.750,316.195 139.457 C 317.278 139.042,316.956 137.200,315.800 137.200 C 315.000 137.200,314.800 137.000,314.800 136.200 C 314.800 135.400,314.600 135.200,313.800 135.200 C 313.000 135.200,312.800 135.000,312.800 134.200 C 312.800 133.400,312.600 133.200,311.800 133.200 C 311.000 133.200,310.800 133.000,310.800 132.200 C 310.800 131.400,310.600 131.200,309.800 131.200 C 309.000 131.200,308.800 131.000,308.800 130.200 C 308.800 128.894,307.012 128.746,306.678 130.024 M79.465 146.399 C 79.957 147.028,79.411 148.178,78.800 147.800 C 78.630 147.695,78.268 147.877,77.996 148.204 C 77.724 148.532,77.636 148.800,77.800 148.800 C 77.964 148.800,77.874 149.070,77.600 149.400 C 76.989 150.136,76.810 150.133,75.807 149.375 C 75.035 148.791,75.056 148.735,76.607 147.265 C 78.343 145.619,78.757 145.493,79.465 146.399 M233.200 150.200 C 233.200 151.000,233.400 151.200,234.200 151.200 C 235.000 151.200,235.200 151.000,235.200 150.200 C 235.200 149.400,235.000 149.200,234.200 149.200 C 233.400 149.200,233.200 149.400,233.200 150.200 M187.769 154.124 C 188.224 154.844,187.528 155.835,186.401 156.073 C 186.072 156.143,185.605 156.452,185.363 156.761 C 185.004 157.217,184.862 157.224,184.599 156.799 C 184.386 156.454,184.433 156.373,184.738 156.562 C 185.041 156.749,185.221 156.461,185.261 155.724 C 185.294 155.106,185.364 154.420,185.415 154.200 C 185.466 153.980,185.528 153.695,185.554 153.567 C 185.653 153.066,187.375 153.499,187.769 154.124 M31.740 156.493 C 31.869 156.984,31.829 157.531,31.652 157.708 C 31.350 158.010,29.200 157.427,29.200 157.043 C 29.200 155.484,31.354 155.018,31.740 156.493 M370.607 156.423 C 370.940 157.470,370.537 158.000,369.410 158.000 C 368.361 158.000,367.944 157.320,368.421 156.388 C 368.882 155.487,370.317 155.510,370.607 156.423 M219.311 175.787 C 218.967 176.401,218.900 176.402,218.396 175.795 C 217.935 175.240,217.939 175.085,218.422 174.786 C 219.196 174.308,219.775 174.959,219.311 175.787 M202.727 177.743 C 202.906 179.244,204.800 179.296,204.800 177.800 L 204.800 176.800 211.000 176.800 L 217.200 176.800 217.200 200.000 L 217.200 223.200 211.000 223.200 L 204.800 223.200 204.800 222.200 C 204.800 221.376,204.607 221.200,203.700 221.200 L 202.600 221.200 202.600 200.100 L 202.600 179.000 201.699 178.872 C 200.535 178.707,199.768 177.362,200.402 176.598 C 201.105 175.751,202.575 176.474,202.727 177.743 M202.440 221.569 C 202.573 221.586,202.663 222.095,202.640 222.700 C 202.598 223.856,201.518 224.342,200.484 223.669 C 199.698 223.157,200.545 221.224,201.478 221.402 C 201.875 221.477,202.308 221.553,202.440 221.569 M219.383 224.772 C 219.784 225.421,218.913 225.618,218.396 224.996 C 217.994 224.511,218.019 224.400,218.527 224.400 C 218.871 224.400,219.256 224.568,219.383 224.772 M185.474 240.434 C 186.270 241.230,185.603 242.400,184.353 242.400 C 183.188 242.400,182.945 241.929,183.443 240.633 C 183.722 239.906,184.836 239.796,185.474 240.434 M31.641 242.681 C 32.323 243.363,31.416 244.682,30.321 244.602 C 29.290 244.526,28.892 243.453,29.584 242.619 C 30.092 242.007,30.994 242.034,31.641 242.681 M368.753 245.100 C 368.727 245.265,368.727 245.535,368.753 245.700 C 368.779 245.865,368.575 245.955,368.300 245.900 C 368.025 245.845,367.849 246.038,367.910 246.330 C 367.970 246.621,367.834 246.745,367.607 246.604 C 367.174 246.337,366.364 247.979,366.671 248.500 C 367.220 249.433,368.886 248.770,368.727 247.681 C 368.576 246.655,368.655 246.576,369.681 246.727 C 370.663 246.871,370.800 246.763,370.800 245.845 C 370.800 244.860,368.900 244.168,368.753 245.100 M89.700 266.665 C 88.703 267.067,89.109 268.800,90.200 268.800 C 91.000 268.800,91.200 269.000,91.200 269.800 C 91.200 270.600,91.400 270.800,92.200 270.800 C 93.000 270.800,93.200 271.000,93.200 271.800 C 93.200 272.600,93.400 272.800,94.200 272.800 C 95.000 272.800,95.200 273.000,95.200 273.800 C 95.200 274.600,95.400 274.800,96.200 274.800 C 97.000 274.800,97.200 275.000,97.200 275.800 C 97.200 276.600,97.400 276.800,98.200 276.800 C 99.575 276.800,99.665 274.922,98.300 274.728 C 97.735 274.648,97.354 274.279,97.277 273.738 C 97.202 273.213,96.772 272.779,96.177 272.630 C 95.576 272.479,95.200 272.096,95.200 271.636 C 95.200 271.167,94.820 270.791,94.185 270.632 C 93.517 270.464,93.209 270.142,93.285 269.689 C 93.360 269.240,93.097 268.957,92.531 268.876 C 91.987 268.799,91.508 268.312,91.252 267.576 C 90.842 266.402,90.643 266.285,89.700 266.665 M239.466 277.027 C 239.750 277.769,239.302 278.282,238.209 278.467 C 237.718 278.549,237.412 278.372,237.401 278.000 C 237.363 276.631,239.015 275.852,239.466 277.027 M103.129 278.014 C 103.047 278.259,102.666 278.165,102.195 277.784 C 101.758 277.430,101.613 277.247,101.872 277.377 C 102.132 277.507,102.480 277.394,102.646 277.126 C 102.990 276.569,103.375 277.276,103.129 278.014 " stroke="none" fill="#fcfcfc" fill-rule="evenodd"></path><path id="path1" d="M235.294 137.666 C 235.395 149.168,235.439 149.797,236.152 149.934 C 237.471 150.188,237.588 149.217,237.588 138.000 C 237.588 126.511,237.560 126.283,236.094 125.825 L 235.188 125.542 235.294 137.666 M162.643 126.633 C 162.321 127.472,162.328 271.539,162.650 273.150 C 162.846 274.129,163.106 274.400,163.850 274.400 L 164.800 274.400 164.800 200.200 L 164.800 126.000 163.843 126.000 C 163.316 126.000,162.776 126.285,162.643 126.633 M34.168 152.100 C 34.221 153.582,34.301 153.588,54.000 153.588 C 73.843 153.588,74.112 153.567,73.563 152.100 L 73.226 151.200 53.681 151.200 L 34.136 151.200 34.168 152.100 M190.105 152.097 C 190.198 153.585,190.237 153.588,212.000 153.588 C 233.159 153.588,234.197 153.520,233.934 152.152 C 233.795 151.428,232.962 151.396,211.919 151.297 L 190.049 151.193 190.105 152.097 M326.488 152.166 C 325.828 153.616,325.620 153.601,346.133 153.594 C 365.703 153.588,365.802 153.580,365.894 152.100 L 365.950 151.200 346.439 151.200 L 326.928 151.200 326.488 152.166 M181.443 163.490 C 181.309 163.624,181.200 179.903,181.200 199.667 L 181.200 235.600 182.200 235.600 L 183.200 235.600 183.200 199.896 C 183.200 165.304,183.176 164.178,182.443 163.720 C 182.027 163.460,181.577 163.356,181.443 163.490 M326.800 247.804 L 326.800 248.808 345.054 248.704 L 363.308 248.600 363.641 247.700 L 363.974 246.800 345.387 246.800 L 326.800 246.800 326.800 247.804 M236.100 248.515 L 235.200 248.922 235.200 261.436 L 235.200 273.950 236.100 273.894 C 237.557 273.804,237.588 273.534,237.588 261.000 C 237.588 248.284,237.538 247.865,236.100 248.515 " stroke="none" fill="#dedede" fill-rule="evenodd"></path><path id="path2" d="M160.981 122.431 C 160.641 122.982,160.985 123.306,161.729 123.135 C 162.224 123.022,162.233 122.919,161.782 122.504 C 161.414 122.166,161.159 122.143,160.981 122.431 M238.239 122.338 C 238.100 122.561,238.182 122.865,238.420 123.012 C 239.035 123.393,239.432 122.872,238.918 122.358 C 238.631 122.071,238.407 122.064,238.239 122.338 M235.418 125.171 C 235.292 125.375,235.596 125.670,236.094 125.825 C 237.560 126.283,237.588 126.511,237.588 138.000 C 237.588 149.400,237.473 150.269,236.018 149.889 C 235.460 149.743,235.209 149.828,235.308 150.131 C 235.658 151.198,237.468 150.883,237.972 149.668 C 238.665 147.995,238.414 126.975,237.686 125.700 C 237.168 124.793,235.843 124.484,235.418 125.171 M162.414 125.974 C 162.133 126.499,162.000 150.264,162.000 199.980 C 162.000 274.870,162.036 276.779,163.450 276.236 C 163.699 276.141,164.059 276.219,164.251 276.410 C 164.449 276.607,164.636 276.248,164.684 275.579 C 164.755 274.586,164.620 274.400,163.834 274.400 C 162.368 274.400,162.400 276.046,162.400 199.583 C 162.400 123.440,162.350 126.000,163.843 126.000 C 164.369 126.000,164.800 125.820,164.800 125.600 C 164.800 124.870,162.841 125.177,162.414 125.974 M306.800 132.800 C 306.800 133.020,307.070 133.200,307.400 133.200 C 307.730 133.200,308.000 133.020,308.000 132.800 C 308.000 132.580,307.730 132.400,307.400 132.400 C 307.070 132.400,306.800 132.580,306.800 132.800 M90.000 134.600 C 90.000 134.930,90.270 135.200,90.600 135.200 C 90.930 135.200,91.200 134.930,91.200 134.600 C 91.200 134.270,90.930 134.000,90.600 134.000 C 90.270 134.000,90.000 134.270,90.000 134.600 M308.800 134.600 C 308.800 134.940,309.159 135.200,309.629 135.200 C 310.365 135.200,310.390 135.133,309.857 134.600 C 309.527 134.270,309.154 134.000,309.029 134.000 C 308.903 134.000,308.800 134.270,308.800 134.600 M88.300 136.433 C 87.630 137.167,87.635 137.200,88.400 137.200 C 88.933 137.200,89.200 136.933,89.200 136.400 C 89.200 135.452,89.196 135.452,88.300 136.433 M310.800 136.376 C 310.800 137.273,311.259 137.669,311.841 137.274 C 312.089 137.105,311.966 136.730,311.522 136.300 C 310.834 135.633,310.800 135.636,310.800 136.376 M320.806 146.300 C 320.803 146.795,320.980 147.200,321.200 147.200 C 321.701 147.200,321.701 146.776,321.200 146.000 C 320.886 145.515,320.811 145.572,320.806 146.300 M33.600 152.127 C 33.600 154.204,33.476 154.191,53.991 154.321 C 75.070 154.455,75.678 154.388,74.439 152.073 C 73.793 150.867,73.121 150.940,73.587 152.166 C 74.138 153.614,74.330 153.600,54.000 153.600 C 34.304 153.600,33.975 153.580,34.279 152.419 C 34.384 152.018,34.274 151.569,34.035 151.422 C 33.767 151.256,33.600 151.527,33.600 152.127 M189.352 152.100 C 189.464 154.200,189.363 154.191,211.768 154.320 C 234.285 154.450,234.951 154.397,234.721 152.474 C 234.654 151.917,234.389 151.393,234.131 151.308 C 233.828 151.209,233.743 151.460,233.889 152.018 C 234.283 153.527,233.436 153.588,212.000 153.588 C 192.272 153.588,189.854 153.475,190.026 152.563 C 190.164 151.831,189.991 151.200,189.652 151.200 C 189.461 151.200,189.326 151.605,189.352 152.100 M325.828 152.074 C 324.251 154.311,324.965 154.400,344.344 154.397 C 365.335 154.392,365.881 154.349,366.343 152.644 C 366.528 151.960,366.607 151.315,366.518 151.212 C 366.245 150.893,365.638 152.138,365.878 152.526 C 366.446 153.445,363.797 153.588,346.133 153.594 C 326.050 153.600,325.767 153.582,326.440 152.326 C 327.056 151.174,326.597 150.985,325.828 152.074 M181.331 162.637 C 181.210 162.952,181.309 163.449,181.552 163.742 C 181.794 164.034,181.860 164.421,181.697 164.601 C 181.533 164.781,181.634 164.793,181.919 164.629 C 182.345 164.383,182.345 164.216,181.919 163.700 C 181.453 163.136,181.492 163.129,182.300 163.632 L 183.200 164.192 183.200 199.896 L 183.200 235.600 182.171 235.600 C 180.871 235.600,180.968 236.937,182.281 237.125 C 182.988 237.226,183.237 236.960,183.598 235.725 C 184.268 233.430,183.986 163.425,183.304 162.744 C 182.587 162.027,181.585 161.972,181.331 162.637 M368.600 242.400 C 368.202 243.654,368.703 244.617,369.799 244.708 C 370.848 244.795,371.233 243.841,370.300 243.465 C 369.900 243.304,369.900 243.257,370.300 243.232 C 371.018 243.186,370.917 242.131,370.167 241.843 C 369.149 241.452,368.869 241.552,368.600 242.400 M29.600 243.200 C 29.600 243.420,29.960 243.600,30.400 243.600 C 30.840 243.600,31.200 243.420,31.200 243.200 C 31.200 242.980,30.840 242.800,30.400 242.800 C 29.960 242.800,29.600 242.980,29.600 243.200 M325.470 246.674 C 324.776 246.860,324.774 246.909,325.432 247.635 C 326.322 248.619,326.800 248.607,326.800 247.600 C 326.800 246.811,327.067 246.800,345.390 246.800 L 363.980 246.800 363.593 247.818 C 363.211 248.822,363.231 248.835,364.998 248.744 C 366.749 248.653,366.774 248.633,366.095 247.857 C 365.586 247.275,365.561 247.150,366.000 247.390 C 366.498 247.662,366.512 247.622,366.080 247.159 C 365.566 246.606,327.420 246.151,325.470 246.674 M235.800 248.000 C 235.046 248.833,235.369 249.060,236.389 248.415 C 237.477 247.727,237.588 248.889,237.588 261.000 C 237.588 272.309,237.443 274.140,236.563 273.974 C 235.811 273.832,235.200 274.013,235.200 274.377 C 235.200 274.926,236.850 274.521,237.578 273.794 C 238.403 272.969,238.766 250.248,237.984 248.360 C 237.419 246.998,236.799 246.896,235.800 248.000 M316.800 257.587 C 316.800 258.104,316.996 258.300,317.369 258.157 C 318.315 257.793,318.475 256.800,317.587 256.800 C 317.071 256.800,316.800 257.071,316.800 257.587 M312.800 261.400 C 312.800 261.730,313.081 262.000,313.424 262.000 C 313.816 262.000,313.936 262.185,313.747 262.500 C 313.543 262.840,313.663 262.824,314.123 262.451 C 314.856 261.857,315.051 261.398,314.400 261.800 C 314.180 261.936,314.000 261.767,314.000 261.424 C 314.000 261.081,313.730 260.800,313.400 260.800 C 313.070 260.800,312.800 261.070,312.800 261.400 M93.733 269.370 C 93.733 270.072,95.104 270.027,95.377 269.316 C 95.503 268.987,95.241 268.800,94.654 268.800 C 94.124 268.800,93.733 269.042,93.733 269.370 M96.000 271.157 C 96.000 271.354,96.270 271.618,96.600 271.745 C 96.965 271.885,97.200 271.745,97.200 271.387 C 97.200 271.064,96.930 270.800,96.600 270.800 C 96.270 270.800,96.000 270.961,96.000 271.157 M98.226 273.158 C 98.104 273.355,98.274 273.619,98.602 273.746 C 98.965 273.885,99.200 273.744,99.200 273.387 C 99.200 272.740,98.575 272.593,98.226 273.158 M294.400 276.728 C 293.201 277.271,293.605 278.637,294.991 278.730 C 296.082 278.804,296.261 278.686,296.233 277.908 C 296.186 276.597,295.567 276.199,294.400 276.728 " stroke="none" fill="#ececec" fill-rule="evenodd"></path><path id="path3" d="M104.004 121.795 C 103.420 122.498,103.723 123.519,104.618 123.862 C 105.612 124.244,106.089 123.487,105.625 122.265 C 105.167 121.060,104.721 120.931,104.004 121.795 M160.612 121.522 C 159.715 122.418,160.780 124.282,162.068 124.070 C 162.771 123.955,162.677 125.382,161.952 125.830 C 161.458 126.135,161.489 274.284,161.983 274.589 C 162.481 274.897,162.055 276.000,161.437 276.000 C 160.606 276.000,160.112 276.807,160.310 277.842 C 160.755 280.168,162.620 278.919,162.463 276.400 C 162.079 270.231,162.030 126.691,162.412 125.978 C 162.649 125.535,163.247 125.200,163.801 125.200 C 164.645 125.200,164.729 125.080,164.434 124.300 C 164.238 123.783,163.818 123.450,163.447 123.518 C 163.091 123.582,162.800 123.472,162.800 123.273 C 162.800 123.074,162.350 122.997,161.800 123.102 C 160.815 123.290,160.413 122.686,161.200 122.200 C 161.420 122.064,161.600 122.158,161.600 122.410 C 161.600 122.661,161.825 122.792,162.100 122.700 C 162.946 122.418,162.653 121.403,161.712 121.355 C 161.223 121.331,160.728 121.406,160.612 121.522 M237.550 121.485 C 237.429 121.763,237.296 122.449,237.250 123.033 C 237.222 123.382,236.975 123.591,236.700 123.498 C 236.245 123.345,235.244 124.252,235.213 124.845 C 235.206 124.979,235.634 125.006,236.165 124.905 C 238.007 124.553,238.188 125.614,238.329 137.547 C 238.473 149.766,238.295 150.993,236.416 150.717 C 235.073 150.520,234.520 151.073,234.717 152.416 C 235.009 154.403,234.428 154.451,211.768 154.320 C 189.695 154.192,189.149 154.143,189.424 152.302 C 189.482 151.917,189.360 151.499,189.154 151.372 C 188.949 151.245,188.806 151.289,188.837 151.470 C 188.978 152.279,188.755 152.549,188.400 152.000 C 188.055 151.467,188.014 151.467,188.028 152.000 C 188.037 152.330,188.612 153.050,189.306 153.600 L 190.568 154.600 212.442 154.600 C 235.998 154.600,236.000 154.600,236.000 152.538 C 236.000 152.242,236.242 152.000,236.538 152.000 C 236.834 152.000,237.419 151.621,237.838 151.159 C 238.899 149.987,239.241 128.230,238.236 125.825 C 237.640 124.398,237.647 124.362,238.624 123.991 C 239.829 123.533,240.259 122.594,239.618 121.822 C 239.224 121.347,237.717 121.102,237.550 121.485 M294.427 122.100 C 293.849 123.596,295.026 124.475,296.006 123.280 C 296.421 122.775,296.660 122.100,296.537 121.780 C 296.193 120.883,294.816 121.092,294.427 122.100 M239.100 123.033 C 238.719 123.415,237.955 122.797,238.239 122.338 C 238.407 122.064,238.631 122.071,238.918 122.358 C 239.154 122.594,239.236 122.898,239.100 123.033 M100.067 123.933 C 99.039 124.961,98.969 125.536,99.831 125.867 C 100.818 126.246,101.693 125.121,101.280 124.005 L 100.933 123.067 100.067 123.933 M97.900 126.063 C 97.515 126.468,97.198 126.935,97.195 127.100 C 97.192 127.265,96.787 127.405,96.295 127.412 C 95.602 127.421,95.428 127.624,95.525 128.312 C 95.644 129.158,95.492 129.263,94.001 129.361 C 93.671 129.383,93.401 129.752,93.401 130.181 C 93.400 130.684,93.044 131.046,92.400 131.197 C 91.769 131.346,91.353 131.759,91.272 132.316 C 91.180 132.950,90.870 133.200,90.172 133.200 C 89.402 133.200,89.200 133.408,89.200 134.200 C 89.200 135.159,88.853 135.386,87.646 135.217 C 87.318 135.172,87.180 135.371,87.309 135.706 C 87.579 136.410,87.103 137.226,86.360 137.335 C 86.052 137.381,85.737 137.594,85.661 137.809 C 85.229 139.019,84.681 139.613,84.089 139.513 C 83.720 139.451,83.397 139.670,83.370 140.000 C 83.254 141.434,83.180 141.635,82.846 141.428 C 82.651 141.308,82.405 141.662,82.299 142.214 C 82.194 142.767,82.271 143.320,82.471 143.444 C 82.949 143.739,84.055 142.813,83.772 142.355 C 83.651 142.160,83.919 142.000,84.367 142.000 C 84.815 142.000,85.476 141.550,85.837 141.000 C 86.197 140.450,86.758 140.000,87.083 140.000 C 87.409 140.000,87.769 139.640,87.884 139.200 C 87.999 138.760,88.248 138.400,88.436 138.400 C 88.924 138.400,92.400 134.862,92.400 134.366 C 92.400 134.139,92.556 134.049,92.747 134.167 C 92.937 134.285,93.415 134.025,93.809 133.591 C 94.202 133.156,94.386 132.800,94.217 132.800 C 94.047 132.800,94.830 131.936,95.955 130.880 C 97.080 129.823,98.000 128.795,98.000 128.595 C 98.000 128.394,98.465 127.860,99.033 127.407 C 100.024 126.616,100.036 126.558,99.333 125.954 C 98.663 125.379,98.540 125.388,97.900 126.063 M300.702 126.201 C 300.565 126.918,300.768 127.349,301.457 127.801 C 301.976 128.140,302.400 128.663,302.400 128.963 C 302.400 129.262,302.758 129.600,303.195 129.715 C 303.633 129.829,304.168 130.390,304.385 130.961 C 304.602 131.533,305.055 132.000,305.390 132.000 C 305.726 132.000,306.000 132.266,306.000 132.591 C 306.000 132.916,306.450 133.476,307.000 133.837 C 307.550 134.197,308.000 134.741,308.000 135.046 C 308.000 135.351,308.148 135.600,308.328 135.600 C 308.813 135.600,312.400 139.118,312.400 139.593 C 312.400 139.817,312.666 140.000,312.991 140.000 C 313.316 140.000,313.878 140.453,314.241 141.006 C 314.603 141.559,315.151 141.964,315.457 141.906 C 315.764 141.848,316.242 142.250,316.519 142.800 C 316.797 143.350,317.243 143.822,317.512 143.850 C 317.780 143.878,318.174 143.922,318.387 143.950 C 318.601 143.978,318.667 144.281,318.535 144.624 C 318.376 145.041,318.579 145.322,319.148 145.471 C 319.708 145.617,320.000 146.011,320.000 146.620 C 320.000 147.233,320.305 147.639,320.900 147.820 C 321.395 147.970,322.199 148.567,322.686 149.147 C 323.173 149.726,323.578 149.975,323.586 149.700 C 323.594 149.425,323.840 149.200,324.133 149.200 C 324.582 149.200,324.684 148.503,324.427 147.200 C 324.406 147.090,324.213 147.270,324.000 147.600 C 323.718 148.036,323.611 148.057,323.606 147.676 C 323.603 147.388,323.420 147.264,323.200 147.400 C 322.980 147.536,322.786 147.502,322.769 147.324 C 322.690 146.480,322.440 145.507,322.257 145.323 C 321.815 144.881,321.182 145.712,321.411 146.434 C 321.544 146.855,321.467 147.200,321.239 147.200 C 321.011 147.200,320.848 146.566,320.877 145.792 C 320.933 144.304,319.911 143.106,318.912 143.489 C 318.561 143.624,318.474 143.472,318.646 143.025 C 318.908 142.342,317.686 141.100,317.104 141.459 C 316.843 141.621,316.617 140.390,316.748 139.514 C 316.771 139.357,316.520 139.332,316.190 139.459 C 315.498 139.725,314.302 138.882,314.627 138.356 C 314.747 138.162,314.399 137.800,313.853 137.552 C 313.308 137.303,312.737 136.627,312.585 136.050 C 312.328 135.074,312.286 135.056,311.982 135.800 C 311.705 136.480,311.652 136.495,311.628 135.900 C 311.613 135.515,311.441 135.200,311.247 135.200 C 311.052 135.200,310.796 134.827,310.676 134.370 C 310.557 133.914,310.086 133.443,309.630 133.324 C 309.173 133.204,308.800 132.779,308.800 132.377 C 308.800 131.392,308.234 131.108,306.263 131.101 C 304.974 131.097,304.825 131.036,305.598 130.830 C 307.004 130.456,307.182 129.200,305.829 129.200 C 304.998 129.200,304.800 129.008,304.800 128.200 C 304.800 127.650,304.609 127.200,304.376 127.200 C 304.143 127.200,304.088 127.425,304.253 127.700 C 304.493 128.099,304.429 128.100,303.940 127.703 C 303.603 127.430,303.212 127.321,303.073 127.461 C 302.933 127.600,302.698 127.401,302.551 127.017 C 302.392 126.602,302.510 126.176,302.842 125.966 C 303.149 125.771,303.220 125.596,303.000 125.576 C 302.780 125.557,302.215 125.468,301.745 125.380 C 301.093 125.257,300.845 125.452,300.702 126.201 M308.000 132.800 C 308.000 133.020,307.730 133.200,307.400 133.200 C 307.070 133.200,306.800 133.020,306.800 132.800 C 306.800 132.580,307.070 132.400,307.400 132.400 C 307.730 132.400,308.000 132.580,308.000 132.800 M91.200 134.600 C 91.200 134.930,90.930 135.200,90.600 135.200 C 90.270 135.200,90.000 134.930,90.000 134.600 C 90.000 134.270,90.270 134.000,90.600 134.000 C 90.930 134.000,91.200 134.270,91.200 134.600 M309.857 134.600 C 310.390 135.133,310.365 135.200,309.629 135.200 C 309.159 135.200,308.800 134.940,308.800 134.600 C 308.800 134.270,308.903 134.000,309.029 134.000 C 309.154 134.000,309.527 134.270,309.857 134.600 M89.200 136.400 C 89.200 136.933,88.933 137.200,88.400 137.200 C 87.635 137.200,87.630 137.167,88.300 136.433 C 89.196 135.452,89.200 135.452,89.200 136.400 M311.841 137.274 C 311.259 137.669,310.800 137.273,310.800 136.376 C 310.800 135.636,310.834 135.633,311.522 136.300 C 311.966 136.730,312.089 137.105,311.841 137.274 M77.591 146.490 C 77.266 146.906,76.656 147.296,76.235 147.356 C 75.171 147.509,75.050 148.914,76.047 149.537 C 76.886 150.061,78.230 149.496,77.800 148.800 C 77.695 148.630,77.877 148.268,78.204 147.996 C 78.532 147.724,78.800 147.636,78.800 147.800 C 78.800 147.964,79.062 147.881,79.382 147.615 C 79.825 147.248,79.860 146.964,79.528 146.433 C 78.962 145.528,78.328 145.546,77.591 146.490 M33.260 152.100 C 33.107 154.900,32.578 154.835,54.400 154.711 C 73.898 154.600,73.982 154.596,74.848 153.730 C 75.681 152.896,75.688 152.831,75.006 152.149 C 74.324 151.467,74.306 151.473,74.567 152.296 C 75.233 154.394,74.611 154.455,53.898 154.322 C 33.446 154.191,33.814 154.231,33.484 152.071 L 33.320 151.000 33.260 152.100 M325.023 152.089 C 323.321 154.519,323.866 154.589,345.311 154.700 C 366.450 154.810,366.529 154.802,366.682 152.591 L 366.765 151.400 366.385 152.644 C 365.866 154.348,365.313 154.392,344.389 154.397 C 325.084 154.400,324.377 154.315,325.788 152.162 C 326.581 150.952,325.867 150.883,325.023 152.089 M185.554 153.567 C 185.528 153.695,185.466 153.980,185.415 154.200 C 185.364 154.420,185.294 155.106,185.261 155.724 C 185.221 156.461,185.041 156.749,184.738 156.562 C 184.433 156.373,184.386 156.454,184.599 156.799 C 184.862 157.224,185.004 157.217,185.363 156.761 C 185.605 156.452,186.072 156.143,186.401 156.073 C 187.528 155.835,188.224 154.844,187.769 154.124 C 187.375 153.499,185.653 153.066,185.554 153.567 M29.443 156.233 C 29.088 157.158,29.103 157.183,30.265 157.625 C 31.539 158.109,32.059 157.710,31.740 156.493 C 31.464 155.438,29.819 155.251,29.443 156.233 M368.421 156.388 C 367.944 157.320,368.361 158.000,369.410 158.000 C 370.537 158.000,370.940 157.470,370.607 156.423 C 370.317 155.510,368.882 155.487,368.421 156.388 M181.200 161.950 C 181.200 162.172,181.548 162.287,181.974 162.205 C 183.827 161.848,183.793 161.197,183.921 198.761 C 184.052 236.820,184.023 237.451,182.172 237.097 C 181.426 236.954,181.200 237.083,181.200 237.651 C 181.200 238.947,183.090 238.439,183.796 236.953 C 184.621 235.213,184.706 164.432,183.885 162.800 C 183.383 161.804,181.200 161.113,181.200 161.950 M218.422 174.786 C 217.939 175.085,217.935 175.240,218.396 175.795 C 218.900 176.402,218.967 176.401,219.311 175.787 C 219.775 174.959,219.196 174.308,218.422 174.786 M200.402 176.598 C 199.748 177.385,200.524 178.654,201.809 178.900 C 202.754 179.080,202.833 178.994,202.722 177.892 C 202.579 176.481,201.157 175.688,200.402 176.598 M200.362 222.299 C 199.915 223.474,200.454 224.074,201.800 223.902 C 202.539 223.808,203.129 221.657,202.440 221.569 C 202.308 221.553,201.875 221.477,201.478 221.402 C 200.999 221.311,200.623 221.613,200.362 222.299 M218.396 224.996 C 218.668 225.323,219.053 225.491,219.252 225.368 C 219.762 225.052,219.274 224.400,218.527 224.400 C 218.019 224.400,217.994 224.511,218.396 224.996 M183.443 240.633 C 182.945 241.929,183.188 242.400,184.353 242.400 C 185.153 242.400,185.568 242.165,185.707 241.634 C 186.079 240.213,183.963 239.278,183.443 240.633 M368.439 240.921 C 368.198 241.162,368.000 241.948,368.000 242.666 C 368.000 243.568,367.749 244.106,367.189 244.406 C 366.743 244.645,366.484 245.013,366.614 245.223 C 366.989 245.830,365.119 246.330,363.970 245.930 C 362.180 245.306,325.846 245.697,325.061 246.349 C 324.033 247.203,324.808 248.800,326.251 248.800 C 326.630 248.800,326.440 248.452,325.724 247.836 L 324.604 246.873 326.002 246.616 C 328.997 246.066,365.524 246.560,366.080 247.159 C 366.510 247.620,366.502 247.662,366.038 247.397 C 365.662 247.182,365.571 247.229,365.762 247.538 C 366.200 248.247,366.683 248.089,366.926 247.160 C 367.051 246.684,367.336 246.437,367.583 246.589 C 367.827 246.740,367.971 246.625,367.910 246.330 C 367.849 246.038,368.011 245.840,368.269 245.890 C 368.581 245.949,368.687 245.480,368.587 244.490 C 368.358 242.221,368.695 241.487,369.838 241.774 C 370.538 241.949,370.800 241.850,370.800 241.408 C 370.800 241.073,370.665 240.786,370.500 240.769 C 370.335 240.753,369.903 240.681,369.539 240.610 C 369.175 240.540,368.680 240.680,368.439 240.921 M29.584 242.619 C 28.892 243.453,29.290 244.526,30.321 244.602 C 31.416 244.682,32.323 243.363,31.641 242.681 C 30.994 242.034,30.092 242.007,29.584 242.619 M31.200 243.200 C 31.200 243.420,30.840 243.600,30.400 243.600 C 29.960 243.600,29.600 243.420,29.600 243.200 C 29.600 242.980,29.960 242.800,30.400 242.800 C 30.840 242.800,31.200 242.980,31.200 243.200 M32.741 246.694 C 32.114 246.836,31.427 248.361,31.816 248.749 C 31.917 248.850,32.000 248.717,32.000 248.453 C 32.000 248.112,32.212 248.085,32.727 248.361 C 33.128 248.575,33.787 248.702,34.194 248.642 C 35.051 248.516,35.861 246.818,35.087 246.769 C 34.819 246.753,34.330 246.695,34.000 246.642 C 33.670 246.588,33.103 246.611,32.741 246.694 M235.798 247.202 C 235.398 247.644,235.165 248.098,235.279 248.212 C 235.393 248.326,235.714 248.145,235.992 247.810 C 238.046 245.334,238.482 247.867,238.332 261.396 L 238.200 273.272 237.200 274.083 C 236.340 274.781,236.311 274.873,236.990 274.744 C 238.629 274.431,238.788 273.210,238.794 260.887 C 238.801 246.921,238.266 244.476,235.798 247.202 M76.100 250.427 C 75.482 250.665,75.200 251.105,75.200 251.830 C 75.200 252.628,75.354 252.826,75.833 252.643 C 76.181 252.509,76.701 252.400,76.990 252.400 C 77.754 252.400,78.115 251.140,77.515 250.569 C 77.174 250.244,76.697 250.197,76.100 250.427 M318.500 254.586 C 317.125 255.986,316.000 257.327,316.000 257.566 C 316.000 257.805,315.799 258.000,315.553 258.000 C 315.080 258.000,312.000 260.920,312.000 261.369 C 312.000 261.513,311.091 262.526,309.979 263.620 C 308.736 264.844,308.068 265.800,308.243 266.105 C 308.400 266.377,308.386 266.471,308.212 266.314 C 307.631 265.790,306.400 266.809,306.400 267.814 C 306.400 268.533,306.184 268.800,305.600 268.800 C 305.067 268.800,304.800 269.067,304.800 269.600 C 304.800 270.040,304.980 270.400,305.200 270.400 C 305.420 270.400,305.555 270.265,305.500 270.100 C 305.445 269.935,305.541 269.761,305.714 269.714 C 305.887 269.667,306.305 269.352,306.643 269.014 C 306.981 268.676,307.514 268.400,307.829 268.400 C 308.143 268.400,308.400 268.136,308.400 267.814 C 308.400 267.087,309.856 266.264,310.470 266.643 C 310.734 266.807,310.814 266.746,310.661 266.498 C 310.196 265.747,310.856 264.800,311.843 264.800 C 312.597 264.800,312.800 264.588,312.800 263.800 C 312.800 263.250,312.980 262.778,313.200 262.750 C 313.420 262.723,313.825 262.678,314.100 262.650 C 314.375 262.623,314.623 262.375,314.650 262.100 C 314.678 261.825,314.723 261.420,314.750 261.200 C 314.778 260.980,315.250 260.800,315.800 260.800 C 316.587 260.800,316.800 260.597,316.800 259.847 C 316.800 259.218,317.083 258.819,317.630 258.676 C 318.086 258.557,318.554 258.096,318.670 257.652 C 318.787 257.208,319.268 256.790,319.741 256.722 C 320.279 256.646,320.648 256.263,320.728 255.700 C 320.818 255.062,321.126 254.800,321.784 254.800 C 322.537 254.800,322.742 254.550,322.867 253.478 C 323.140 251.136,321.472 251.560,318.500 254.586 M318.157 257.369 C 317.793 258.315,316.800 258.475,316.800 257.587 C 316.800 257.071,317.071 256.800,317.587 256.800 C 318.104 256.800,318.300 256.996,318.157 257.369 M314.103 261.549 C 314.253 262.126,314.126 262.253,313.549 262.103 C 313.137 261.995,312.800 261.658,312.800 261.353 C 312.800 260.524,313.877 260.686,314.103 261.549 M88.400 263.020 C 88.400 263.141,88.683 263.787,89.029 264.456 C 89.375 265.125,89.556 265.938,89.431 266.262 C 89.262 266.703,89.406 266.788,90.002 266.599 C 90.611 266.406,90.892 266.590,91.193 267.380 C 91.409 267.949,92.035 268.585,92.585 268.794 C 93.236 269.042,93.505 269.382,93.356 269.770 C 93.201 270.175,93.461 270.450,94.164 270.627 C 94.817 270.791,95.200 271.163,95.200 271.636 C 95.200 272.096,95.576 272.479,96.177 272.630 C 96.772 272.779,97.202 273.213,97.277 273.738 C 97.354 274.279,97.735 274.648,98.300 274.728 C 98.955 274.821,99.200 275.124,99.200 275.840 C 99.200 276.708,99.359 276.814,100.534 276.735 C 102.260 276.619,102.385 274.224,100.667 274.191 C 100.410 274.186,100.230 273.916,100.266 273.591 C 100.303 273.266,99.468 272.280,98.411 271.400 C 97.353 270.520,96.396 269.486,96.282 269.102 C 96.169 268.718,95.744 268.278,95.338 268.123 C 94.932 267.969,94.263 267.417,93.852 266.897 C 93.440 266.377,92.867 266.042,92.577 266.154 C 92.257 266.276,92.001 266.011,91.925 265.478 C 91.844 264.906,91.470 264.553,90.854 264.466 C 90.332 264.392,89.818 263.989,89.707 263.566 C 89.533 262.900,88.400 262.426,88.400 263.020 M95.377 269.316 C 95.104 270.027,93.733 270.072,93.733 269.370 C 93.733 269.042,94.124 268.800,94.654 268.800 C 95.241 268.800,95.503 268.987,95.377 269.316 M97.200 271.387 C 97.200 271.745,96.965 271.885,96.600 271.745 C 96.270 271.618,96.000 271.354,96.000 271.157 C 96.000 270.961,96.270 270.800,96.600 270.800 C 96.930 270.800,97.200 271.064,97.200 271.387 M99.200 273.387 C 99.200 273.744,98.965 273.885,98.602 273.746 C 98.274 273.619,98.104 273.355,98.226 273.158 C 98.575 272.593,99.200 272.740,99.200 273.387 M294.119 275.913 C 292.698 276.135,292.404 278.667,293.800 278.667 C 294.110 278.667,294.243 278.472,294.094 278.233 C 293.564 277.388,293.692 276.869,294.479 276.663 C 295.644 276.359,296.339 276.747,296.121 277.581 C 296.016 277.982,296.103 278.417,296.315 278.548 C 296.527 278.678,296.700 278.345,296.700 277.806 C 296.700 276.663,295.404 275.712,294.119 275.913 M237.792 276.915 C 237.106 277.730,237.343 278.613,238.209 278.467 C 239.302 278.282,239.750 277.769,239.466 277.027 C 239.182 276.287,238.367 276.232,237.792 276.915 M102.646 277.126 C 102.480 277.394,102.132 277.507,101.872 277.377 C 101.613 277.247,101.758 277.430,102.195 277.784 C 102.984 278.422,103.432 278.095,103.107 277.120 C 102.983 276.748,102.878 276.750,102.646 277.126 " stroke="none" fill="#f4f4f4" fill-rule="evenodd"></path><path id="path4" d="" stroke="none" fill="#100f8fc" fill-rule="evenodd"></path></g></svg>